<svg width="36" height="35" viewBox="0 0 36 35" fill="none" xmlns="http://www.w3.org/2000/svg">
<path d="M29.1597 5.65112C29.7088 6.20015 30.0124 7.02623 30.012 8.14449C30.0116 9.26651 29.7024 10.63 29.0836 12.1548C27.8471 15.2018 25.4263 18.7654 22.0961 22.0955C18.766 25.4257 15.2024 27.8465 12.1554 29.083C10.6306 29.7018 9.2671 30.011 8.14508 30.0114C7.02682 30.0118 6.20074 29.7082 5.65171 29.1592C5.10267 28.6101 4.79904 27.784 4.79945 26.6658C4.79986 25.5438 5.10906 24.1803 5.72787 22.6555C6.96439 19.6085 9.38517 16.0449 12.7153 12.7147C16.0455 9.38458 19.6091 6.9638 22.6561 5.72728C24.1809 5.10847 25.5444 4.79927 26.6664 4.79886C27.7846 4.79845 28.6107 5.10208 29.1597 5.65112Z" stroke="url(#paint0_linear_3917_163759)" stroke-width="1.35948"/>
<path d="M29.5873 29.4101C28.9815 30.0158 28.0902 30.3372 26.9312 30.3448C25.7691 30.3525 24.3738 30.0426 22.8293 29.4249C19.7422 28.19 16.1511 25.7616 12.8083 22.4188C9.46552 19.076 7.03714 15.4849 5.80229 12.3978C5.18451 10.8534 4.87468 9.45807 4.88233 8.296C4.88997 7.13692 5.21131 6.24562 5.81707 5.63987C6.42283 5.03411 7.31412 4.71276 8.4732 4.70513C9.63527 4.69748 11.0306 5.00731 12.575 5.62509C15.6621 6.85994 19.2533 9.28832 22.596 12.6311C25.9388 15.9739 28.3672 19.565 29.6021 22.6521C30.2198 24.1966 30.5297 25.5919 30.522 26.7539C30.5144 27.913 30.193 28.8043 29.5873 29.4101Z" stroke="url(#paint1_linear_3917_163759)" stroke-width="0.988711"/>
<circle cx="17.6849" cy="17.345" r="2.96613" fill="url(#paint2_linear_3917_163759)"/>
<defs>
<linearGradient id="paint0_linear_3917_163759" x1="27.9964" y1="4.79657" x2="4.1482" y2="29.2714" gradientUnits="userSpaceOnUse">
<stop stop-color="#219EEB"/>
<stop offset="0.412924" stop-color="#6ECDE4"/>
<stop offset="0.961458" stop-color="#B1F0FF"/>
</linearGradient>
<linearGradient id="paint1_linear_3917_163759" x1="7.17562" y1="4.99043" x2="30.5339" y2="30.6969" gradientUnits="userSpaceOnUse">
<stop stop-color="#405199"/>
<stop offset="0.565625" stop-color="#8C57A9"/>
<stop offset="0.966667" stop-color="#9F4390"/>
</linearGradient>
<linearGradient id="paint2_linear_3917_163759" x1="15.4603" y1="15.7384" x2="19.6623" y2="19.6932" gradientUnits="userSpaceOnUse">
<stop stop-color="#C084FC"/>
<stop offset="1" stop-color="#82D7EC"/>
</linearGradient>
</defs>
</svg>
